<?xml version="1.0" encoding="UTF-8" standalone="no"?>
<!-- Created with Inkscape (http://www.inkscape.org/) -->

<svg
   width="512"
   height="512"
   viewBox="0 0 512 512"
   version="1.1"
   id="svg1"
   xml:space="preserve"
   inkscape:version="1.4.2 (f4327f4, 2025-05-13)"
   sodipodi:docname="icon.svg"
   xmlns:inkscape="http://www.inkscape.org/namespaces/inkscape"
   xmlns:sodipodi="http://sodipodi.sourceforge.net/DTD/sodipodi-0.dtd"
   xmlns:xlink="http://www.w3.org/1999/xlink"
   xmlns="http://www.w3.org/2000/svg"
   xmlns:svg="http://www.w3.org/2000/svg"><sodipodi:namedview
     id="namedview1"
     pagecolor="#ffffff"
     bordercolor="#000000"
     borderopacity="0.25"
     inkscape:showpageshadow="2"
     inkscape:pageopacity="0.0"
     inkscape:pagecheckerboard="0"
     inkscape:deskcolor="#d1d1d1"
     inkscape:document-units="px"
     showguides="false"
     inkscape:zoom="1.6227548"
     inkscape:cx="195.65494"
     inkscape:cy="213.52579"
     inkscape:window-width="2560"
     inkscape:window-height="1377"
     inkscape:window-x="2152"
     inkscape:window-y="1359"
     inkscape:window-maximized="1"
     inkscape:current-layer="g10" /><defs
     id="defs1"><inkscape:path-effect
       effect="skeletal"
       id="path-effect17"
       is_visible="true"
       lpeversion="1"
       pattern="M 0,18.867925 C 0,8.4528302 8.4528302,0 18.867925,0 c 10.415094,0 18.867924,8.4528302 18.867924,18.867925 0,10.415094 -8.45283,18.867924 -18.867924,18.867924 C 8.4528302,37.735849 0,29.283019 0,18.867925 Z"
       copytype="single_stretched"
       prop_scale="1"
       scale_y_rel="false"
       spacing="0"
       normal_offset="0"
       tang_offset="0"
       prop_units="false"
       vertical_pattern="false"
       hide_knot="false"
       fuse_tolerance="0" /><inkscape:path-effect
       effect="bspline"
       id="path-effect16"
       is_visible="true"
       lpeversion="1.3"
       weight="33.333333"
       steps="2"
       helper_size="0"
       apply_no_weight="true"
       apply_with_weight="true"
       only_selected="false"
       uniform="false" /><inkscape:path-effect
       effect="bspline"
       id="path-effect15"
       is_visible="true"
       lpeversion="1.3"
       weight="33.333333"
       steps="2"
       helper_size="0"
       apply_no_weight="true"
       apply_with_weight="true"
       only_selected="false"
       uniform="false" /><linearGradient
       id="linearGradient5"
       inkscape:collect="always"><stop
         style="stop-color:#ffa300;stop-opacity:1;"
         offset="0"
         id="stop5" /><stop
         style="stop-color:#ff7100;stop-opacity:1;"
         offset="1"
         id="stop6" /></linearGradient><radialGradient
       inkscape:collect="always"
       xlink:href="#linearGradient5"
       id="radialGradient6"
       cx="1000"
       cy="1000.0005"
       fx="1000"
       fy="1000.0005"
       r="1000"
       gradientTransform="matrix(1,0,0,0.9136755,0,86.324543)"
       gradientUnits="userSpaceOnUse" /><radialGradient
       inkscape:collect="always"
       xlink:href="#linearGradient5"
       id="radialGradient7"
       gradientUnits="userSpaceOnUse"
       gradientTransform="matrix(1,0,0,0.9136755,0,86.324543)"
       cx="1000"
       cy="1000.0005"
       fx="1000"
       fy="1000.0005"
       r="1000" /><radialGradient
       inkscape:collect="always"
       xlink:href="#linearGradient5"
       id="radialGradient8"
       gradientUnits="userSpaceOnUse"
       gradientTransform="matrix(1,0,0,0.9136755,0,86.324543)"
       cx="1000"
       cy="1000.0005"
       fx="1000"
       fy="1000.0005"
       r="1000" /><radialGradient
       inkscape:collect="always"
       xlink:href="#linearGradient5"
       id="radialGradient9"
       gradientUnits="userSpaceOnUse"
       gradientTransform="matrix(1,0,0,0.9136755,0,86.324543)"
       cx="1000"
       cy="1000.0005"
       fx="1000"
       fy="1000.0005"
       r="1000" /><radialGradient
       inkscape:collect="always"
       xlink:href="#linearGradient5"
       id="radialGradient10"
       gradientUnits="userSpaceOnUse"
       gradientTransform="matrix(1,0,0,0.9136755,0,86.324543)"
       cx="1000"
       cy="1000.0005"
       fx="1000"
       fy="1000.0005"
       r="1000" /></defs><g
     inkscape:label="Layer 1"
     inkscape:groupmode="layer"
     id="layer1"><g
       id="Icon"
       transform="matrix(0.22689287,0,0,0.22687299,29.107117,52.701382)"
       style="fill:url(#radialGradient6);fill-opacity:1;stroke:#000000;stroke-width:22.0378;stroke-dasharray:none;stroke-opacity:1">
	<polygon
   fill="#f07b05"
   points="1094.44,902.238 1058.273,896.09 1049.231,840.303 1064.602,827.057 1043.535,571.994 1033.001,629.543 1027.26,774.525 999.684,795.23 972.468,774.525 966.727,629.543 956.194,571.994 935.126,827.057 950.451,840.303 941.41,896.994 905.289,902.238 874.277,928.142 928.3,928.142 926.402,955.945 848.598,969.417 817.903,995.954 934.222,995.954 999.774,1053.685 1065.506,995.954 1181.781,995.954 1151.084,969.417 1073.281,955.945 1071.383,928.142 1125.451,928.142 "
   id="polygon1"
   style="fill:url(#radialGradient7);fill-opacity:1;stroke:#000000;stroke-width:22.0378;stroke-dasharray:none;stroke-opacity:1" />
	<path
   fill="#f07b05"
   d="m 1188.156,820.547 h -0.452 v 32.776 c 0,0 61.393,48.327 61.393,106.374 l -67.225,67.812 h -68.987 l -51.673,50.452 v 0.362 0 l -3.526,17.179 h -115.1 l -3.526,-17.134 v 0 -0.361 L 887.387,1027.69 H 818.354 L 751.13,959.878 c 0,-57.866 61.438,-106.103 61.438,-106.103 v -33.409 h -0.452 L 0,86.325 c 0.452,175.135 0.452,205.379 75.317,275.362 1.673,1.492 66.907,63.291 76.221,70.614 v 1.266 c 0,162.025 0,162.025 63.291,216.999 1.989,1.763 73.734,68.941 73.734,68.941 0,0 -0.271,22.921 0,30.244 0,116.411 0,117.768 53.3,175.407 19.892,21.52 102.712,99.458 183.951,174.593 H 268.173 l 288.518,257.686 h 315.823 l -28.21,49.729 H 608.861 l 78.979,67.813 h 205.289 l 106.962,-210.263 109.223,210.263 h 202.26 l 78.979,-67.813 h -232.504 l -28.21,-49.729 h 316.817 l 285.488,-257.686 h -257.686 c 81.375,-75.316 163.969,-153.074 183.906,-174.548 53.391,-57.64 53.255,-58.771 53.255,-175.361 0,-7.369 0,-30.289 0,-30.289 0,0 71.745,-67.134 73.733,-68.897 63.292,-55.153 63.292,-55.153 63.292,-216.998 v -1.266 c 9.403,-7.007 74.366,-69.078 76.04,-70.57 74.863,-69.937 74.863,-100.226 75.316,-275.497 z"
   id="path1"
   style="fill:url(#radialGradient8);fill-opacity:1;stroke:#000000;stroke-width:22.0378;stroke-dasharray:none;stroke-opacity:1" />
	<path
   d="M 1001.447,1913.676 Z"
   id="path2"
   style="fill:url(#radialGradient9);fill-opacity:1;stroke:#000000;stroke-width:22.0378;stroke-dasharray:none;stroke-opacity:1" />
	<path
   fill="#f07b05"
   d="m 1001.944,1402.735 -102.034,243.264 70.163,68.129 c -9.313,58.544 -18.084,117.134 -18.535,129.476 -0.634,25.497 47.423,67.812 49.729,70.072 2.396,-2.08 50.406,-44.575 49.729,-70.072 -0.316,-11.98 -8.725,-67.813 -17.767,-124.639 l 70.163,-72.966 z"
   id="path3"
   style="fill:url(#radialGradient10);fill-opacity:1;stroke:#000000;stroke-width:22.0378;stroke-dasharray:none;stroke-opacity:1" />
</g><g
       id="g18"
       transform="translate(52.169762,-34.180621)"><g
         id="g10"
         transform="matrix(1.2531778,0,0,1.1674003,-107.08265,-20.626175)"
         style="stroke:none;stroke-width:6.54994;stroke-dasharray:none;stroke-opacity:1;fill:#ff7100;fill-opacity:1"><g
           id="g4"
           transform="translate(10.457868,11.205193)"
           style="stroke:none;stroke-width:6.54994;stroke-dasharray:none;stroke-opacity:1;fill:#ff7100;fill-opacity:1"><path
             id="path4"
             style="stroke-width:12.89340727;stroke-linecap:round;stroke-linejoin:round;fill:#000000;stroke-dasharray:none;stroke:none;stroke-opacity:1;fill-opacity:1"
             inkscape:transform-center-x="10.154401"
             inkscape:transform-center-y="-1.9540352e-06"
             transform="matrix(0,-0.61270263,0.42116477,0,195.13789,296.18115)"
             d="M 383.87202,72.869999 H 300.35156 216.83111 L 258.59133,0.5391628 300.35156,-71.791676 342.11179,0.53916056 Z M 332.35177,-96.622512 V 0.53915241 H 268.35136 V -96.622512 Z" /></g></g><path
         style="fill:none;fill-opacity:1;stroke:#ff7100;stroke-width:10;stroke-linecap:round;stroke-linejoin:round;stroke-dasharray:none;stroke-opacity:1"
         id="path17"
         sodipodi:type="arc"
         sodipodi:cx="209.67821"
         sodipodi:cy="127.49973"
         sodipodi:rx="38.305847"
         sodipodi:ry="38.692776"
         sodipodi:start="5.0614548"
         sodipodi:end="1.2217305"
         sodipodi:arc-type="arc"
         d="m 222.77958,91.140417 a 38.305847,38.692776 0 0 1 25.20447,36.359313 38.305847,38.692776 0 0 1 -25.20447,36.35932"
         sodipodi:open="true" /><path
         style="fill:none;fill-opacity:1;stroke:#ff7100;stroke-width:10;stroke-linecap:round;stroke-linejoin:round;stroke-dasharray:none;stroke-opacity:1"
         id="path17-8"
         sodipodi:type="arc"
         sodipodi:cx="214.50731"
         sodipodi:cy="127.49973"
         sodipodi:rx="61.984306"
         sodipodi:ry="60.023426"
         sodipodi:start="5.0614548"
         sodipodi:end="1.2217305"
         sodipodi:arc-type="arc"
         d="m 235.70719,71.096162 a 61.984306,60.023426 0 0 1 40.78443,56.403568 61.984306,60.023426 0 0 1 -40.78443,56.40357"
         sodipodi:open="true" /><path
         style="fill:none;fill-opacity:1;stroke:#ff7100;stroke-width:10;stroke-linecap:round;stroke-linejoin:round;stroke-dasharray:none;stroke-opacity:1"
         id="path17-8-1"
         sodipodi:type="arc"
         sodipodi:cx="218.12753"
         sodipodi:cy="127.49973"
         sodipodi:rx="87.464363"
         sodipodi:ry="82.977043"
         sodipodi:start="5.0614548"
         sodipodi:end="1.2217305"
         sodipodi:arc-type="arc"
         d="m 248.0421,49.526817 a 87.464363,82.977043 0 0 1 57.5498,77.972913 87.464363,82.977043 0 0 1 -57.54979,77.97292"
         sodipodi:open="true" /></g></g></svg>
